# xmcd
#
# Track frame offsets: 
#        150
#        12447
#        24534
#        43444
#        56650
#        70407
#        83598
#
# Disc length: 1317 seconds
#
# Revision: 0
# Processed by: cddbd v1.5.2PL0 Copyright (c) Steve Scherf et al.
# Submitted via: ExactAudioCopy v1.0b3
#
DISCID=5b052307
DTITLE=Dolly Parton - De Største hits - Hjemmet
DYEAR=2013
DGENRE=Country
TTITLE0=9 To 5
TTITLE1=Jolene
TTITLE2=Islands In The Stream
TTITLE3=Here You Come Again
TTITLE4=Coat Of Many Colors
TTITLE5=I Will Always Love You
TTITLE6=Applejack
EXTD=
EXTT0=
EXTT1=
EXTT2=
EXTT3=
EXTT4=
EXTT5=
EXTT6=
PLAYORDER=
